<mxfile host="app.diagrams.net" modified="2023-12-09T13:51:31.079Z" agent="Mozilla/5.0 (Windows NT 10.0; Win64; x64; rv:121.0) Gecko/20100101 Firefox/121.0" etag="ochYuq9bUWqWAsNX_Nma" version="22.1.7" type="device">
  <diagram name="Page-1" id="5EKxqAtOWjeH5_8KVAcv">
    <mxGraphModel dx="139" dy="626" grid="1" gridSize="10" guides="1" tooltips="1" connect="1" arrows="1" fold="1" page="1" pageScale="1" pageWidth="850" pageHeight="1100" math="0" shadow="0">
      <root>
        <mxCell id="0" />
        <mxCell id="1" parent="0" />
        <mxCell id="xx55bw7lr7mvihbNkNI9-56" value="" style="rounded=1;whiteSpace=wrap;html=1;" vertex="1" parent="1">
          <mxGeometry x="920" y="200" width="830" height="650" as="geometry" />
        </mxCell>
        <mxCell id="xx55bw7lr7mvihbNkNI9-106" value="" style="whiteSpace=wrap;html=1;rounded=1;" vertex="1" parent="1">
          <mxGeometry x="970" y="290" width="710" height="140" as="geometry" />
        </mxCell>
        <mxCell id="xx55bw7lr7mvihbNkNI9-107" value="" style="whiteSpace=wrap;html=1;rounded=1;" vertex="1" parent="1">
          <mxGeometry x="970" y="490" width="710" height="120" as="geometry" />
        </mxCell>
        <mxCell id="xx55bw7lr7mvihbNkNI9-108" value="" style="whiteSpace=wrap;html=1;rounded=1;" vertex="1" parent="1">
          <mxGeometry x="970" y="670" width="710" height="130" as="geometry" />
        </mxCell>
        <mxCell id="xx55bw7lr7mvihbNkNI9-109" style="edgeStyle=orthogonalEdgeStyle;rounded=0;orthogonalLoop=1;jettySize=auto;html=1;exitX=1;exitY=0.5;exitDx=0;exitDy=0;" edge="1" parent="1" source="xx55bw7lr7mvihbNkNI9-110" target="xx55bw7lr7mvihbNkNI9-113">
          <mxGeometry relative="1" as="geometry" />
        </mxCell>
        <mxCell id="xx55bw7lr7mvihbNkNI9-110" value="&lt;font size=&quot;1&quot;&gt;&lt;b&gt;&lt;font style=&quot;font-size: 18px;&quot;&gt;Feature Searching &lt;/font&gt;&lt;/b&gt;&lt;/font&gt;" style="rounded=1;whiteSpace=wrap;html=1;" vertex="1" parent="1">
          <mxGeometry x="990" y="300" width="290" height="50" as="geometry" />
        </mxCell>
        <mxCell id="xx55bw7lr7mvihbNkNI9-111" style="edgeStyle=orthogonalEdgeStyle;rounded=0;orthogonalLoop=1;jettySize=auto;html=1;exitX=1;exitY=0.5;exitDx=0;exitDy=0;" edge="1" parent="1" source="xx55bw7lr7mvihbNkNI9-112" target="xx55bw7lr7mvihbNkNI9-113">
          <mxGeometry relative="1" as="geometry" />
        </mxCell>
        <mxCell id="xx55bw7lr7mvihbNkNI9-112" value="&lt;font size=&quot;1&quot;&gt;&lt;b style=&quot;font-size: 18px;&quot;&gt;Key frame tracking&lt;/b&gt;&lt;/font&gt;" style="rounded=1;whiteSpace=wrap;html=1;" vertex="1" parent="1">
          <mxGeometry x="990" y="370" width="290" height="50" as="geometry" />
        </mxCell>
        <mxCell id="xx55bw7lr7mvihbNkNI9-113" value="&lt;font size=&quot;1&quot;&gt;&lt;b style=&quot;font-size: 18px;&quot;&gt;Pose Estimation&lt;/b&gt;&lt;/font&gt;" style="rounded=1;whiteSpace=wrap;html=1;" vertex="1" parent="1">
          <mxGeometry x="1310" y="330" width="160" height="60" as="geometry" />
        </mxCell>
        <mxCell id="xx55bw7lr7mvihbNkNI9-114" value="&lt;font size=&quot;1&quot;&gt;&lt;b style=&quot;font-size: 16px;&quot;&gt;Key Frame creation&lt;/b&gt;&lt;/font&gt;" style="rounded=1;whiteSpace=wrap;html=1;" vertex="1" parent="1">
          <mxGeometry x="1500" y="330" width="160" height="60" as="geometry" />
        </mxCell>
        <mxCell id="xx55bw7lr7mvihbNkNI9-115" style="edgeStyle=orthogonalEdgeStyle;rounded=0;orthogonalLoop=1;jettySize=auto;html=1;entryX=-0.037;entryY=0.533;entryDx=0;entryDy=0;entryPerimeter=0;" edge="1" parent="1" source="xx55bw7lr7mvihbNkNI9-113" target="xx55bw7lr7mvihbNkNI9-114">
          <mxGeometry relative="1" as="geometry" />
        </mxCell>
        <mxCell id="xx55bw7lr7mvihbNkNI9-116" style="edgeStyle=orthogonalEdgeStyle;rounded=0;orthogonalLoop=1;jettySize=auto;html=1;entryX=0;entryY=0.5;entryDx=0;entryDy=0;" edge="1" parent="1" source="xx55bw7lr7mvihbNkNI9-117" target="xx55bw7lr7mvihbNkNI9-119">
          <mxGeometry relative="1" as="geometry" />
        </mxCell>
        <mxCell id="xx55bw7lr7mvihbNkNI9-117" value="&lt;font size=&quot;1&quot;&gt;&lt;b style=&quot;font-size: 18px;&quot;&gt;Data Association&lt;/b&gt;&lt;/font&gt;" style="rounded=1;whiteSpace=wrap;html=1;" vertex="1" parent="1">
          <mxGeometry x="990" y="520" width="190" height="60" as="geometry" />
        </mxCell>
        <mxCell id="xx55bw7lr7mvihbNkNI9-118" style="edgeStyle=orthogonalEdgeStyle;rounded=0;orthogonalLoop=1;jettySize=auto;html=1;entryX=0;entryY=0.5;entryDx=0;entryDy=0;" edge="1" parent="1" source="xx55bw7lr7mvihbNkNI9-119" target="xx55bw7lr7mvihbNkNI9-120">
          <mxGeometry relative="1" as="geometry" />
        </mxCell>
        <mxCell id="xx55bw7lr7mvihbNkNI9-119" value="&lt;font size=&quot;1&quot;&gt;&lt;b style=&quot;font-size: 18px;&quot;&gt;Bundle Adjustment&lt;/b&gt;&lt;/font&gt;" style="rounded=1;whiteSpace=wrap;html=1;" vertex="1" parent="1">
          <mxGeometry x="1230" y="520" width="190" height="60" as="geometry" />
        </mxCell>
        <mxCell id="xx55bw7lr7mvihbNkNI9-120" value="&lt;font size=&quot;1&quot;&gt;&lt;b style=&quot;font-size: 18px;&quot;&gt;Reconstruction&lt;/b&gt;&lt;/font&gt;" style="rounded=1;whiteSpace=wrap;html=1;" vertex="1" parent="1">
          <mxGeometry x="1460" y="520" width="195" height="60" as="geometry" />
        </mxCell>
        <mxCell id="xx55bw7lr7mvihbNkNI9-121" style="edgeStyle=orthogonalEdgeStyle;rounded=0;orthogonalLoop=1;jettySize=auto;html=1;entryX=0;entryY=0.5;entryDx=0;entryDy=0;" edge="1" parent="1" source="xx55bw7lr7mvihbNkNI9-122" target="xx55bw7lr7mvihbNkNI9-123">
          <mxGeometry relative="1" as="geometry" />
        </mxCell>
        <mxCell id="xx55bw7lr7mvihbNkNI9-122" value="&lt;font size=&quot;1&quot;&gt;&lt;b style=&quot;font-size: 18px;&quot;&gt;Loop Detection&lt;/b&gt;&lt;/font&gt;" style="rounded=1;whiteSpace=wrap;html=1;" vertex="1" parent="1">
          <mxGeometry x="1000" y="700" width="300" height="70" as="geometry" />
        </mxCell>
        <mxCell id="xx55bw7lr7mvihbNkNI9-123" value="&lt;font size=&quot;1&quot;&gt;&lt;b style=&quot;font-size: 18px;&quot;&gt;Loop Closing&lt;/b&gt;&lt;/font&gt;" style="rounded=1;whiteSpace=wrap;html=1;" vertex="1" parent="1">
          <mxGeometry x="1350" y="700" width="300" height="70" as="geometry" />
        </mxCell>
        <mxCell id="xx55bw7lr7mvihbNkNI9-124" value="Tracking" style="text;html=1;strokeColor=none;fillColor=none;align=center;verticalAlign=middle;whiteSpace=wrap;rounded=0;" vertex="1" parent="1">
          <mxGeometry x="990" y="260" width="60" height="30" as="geometry" />
        </mxCell>
        <mxCell id="xx55bw7lr7mvihbNkNI9-125" value="Mapping" style="text;html=1;strokeColor=none;fillColor=none;align=center;verticalAlign=middle;whiteSpace=wrap;rounded=0;" vertex="1" parent="1">
          <mxGeometry x="980" y="460" width="60" height="30" as="geometry" />
        </mxCell>
        <mxCell id="xx55bw7lr7mvihbNkNI9-126" value="Loop" style="text;html=1;strokeColor=none;fillColor=none;align=center;verticalAlign=middle;whiteSpace=wrap;rounded=0;" vertex="1" parent="1">
          <mxGeometry x="980" y="640" width="60" height="30" as="geometry" />
        </mxCell>
        <mxCell id="xx55bw7lr7mvihbNkNI9-127" value="" style="shape=flexArrow;endArrow=classic;startArrow=classic;html=1;rounded=0;entryX=0.5;entryY=1;entryDx=0;entryDy=0;exitX=0.5;exitY=0;exitDx=0;exitDy=0;" edge="1" parent="1" source="xx55bw7lr7mvihbNkNI9-108" target="xx55bw7lr7mvihbNkNI9-107">
          <mxGeometry width="100" height="100" relative="1" as="geometry">
            <mxPoint x="1400" y="990" as="sourcePoint" />
            <mxPoint x="1500" y="890" as="targetPoint" />
          </mxGeometry>
        </mxCell>
        <mxCell id="xx55bw7lr7mvihbNkNI9-128" value="" style="shape=flexArrow;endArrow=classic;startArrow=classic;html=1;rounded=0;entryX=0.5;entryY=1;entryDx=0;entryDy=0;exitX=0.5;exitY=0;exitDx=0;exitDy=0;" edge="1" parent="1" source="xx55bw7lr7mvihbNkNI9-107" target="xx55bw7lr7mvihbNkNI9-106">
          <mxGeometry width="100" height="100" relative="1" as="geometry">
            <mxPoint x="1324.55" y="520" as="sourcePoint" />
            <mxPoint x="1324.55" y="460" as="targetPoint" />
          </mxGeometry>
        </mxCell>
        <mxCell id="xx55bw7lr7mvihbNkNI9-129" value="&lt;b style=&quot;font-size: 28px;&quot;&gt;VSLAM MODULE&lt;br&gt;&lt;/b&gt;" style="text;html=1;strokeColor=none;fillColor=none;align=center;verticalAlign=middle;whiteSpace=wrap;rounded=0;" vertex="1" parent="1">
          <mxGeometry x="1170" y="220" width="280" height="50" as="geometry" />
        </mxCell>
      </root>
    </mxGraphModel>
  </diagram>
</mxfile>
